<svg width="867" height="191" viewBox="0 0 867 191" fill="none" xmlns="http://www.w3.org/2000/svg">
<path d="M524.767 139H512.995V102.636H525.14C528.703 102.636 531.763 103.364 534.32 104.82C536.876 106.264 538.835 108.342 540.197 111.053C541.57 113.751 542.256 116.989 542.256 120.765C542.256 124.553 541.564 127.808 540.179 130.531C538.806 133.253 536.817 135.348 534.213 136.816C531.609 138.272 528.46 139 524.767 139ZM518.482 134.206H524.465C527.235 134.206 529.537 133.685 531.372 132.643C533.207 131.59 534.58 130.069 535.491 128.08C536.403 126.08 536.859 123.641 536.859 120.765C536.859 117.912 536.403 115.491 535.491 113.503C534.592 111.514 533.248 110.005 531.461 108.975C529.674 107.945 527.454 107.43 524.803 107.43H518.482V134.206ZM560.407 139.55C557.72 139.55 555.406 138.976 553.465 137.828C551.535 136.668 550.044 135.04 548.99 132.945C547.949 130.838 547.428 128.37 547.428 125.541C547.428 122.748 547.949 120.286 548.99 118.155C550.044 116.024 551.512 114.361 553.394 113.165C555.288 111.97 557.501 111.372 560.034 111.372C561.573 111.372 563.065 111.627 564.509 112.136C565.953 112.645 567.249 113.444 568.397 114.533C569.545 115.622 570.451 117.036 571.114 118.776C571.777 120.504 572.108 122.606 572.108 125.08V126.962H550.428V122.984H566.906C566.906 121.588 566.622 120.351 566.053 119.273C565.485 118.184 564.686 117.326 563.656 116.699C562.638 116.071 561.443 115.758 560.07 115.758C558.578 115.758 557.276 116.125 556.164 116.859C555.063 117.581 554.21 118.528 553.607 119.7C553.015 120.86 552.719 122.12 552.719 123.482V126.589C552.719 128.412 553.039 129.962 553.678 131.241C554.329 132.519 555.234 133.496 556.394 134.17C557.554 134.833 558.91 135.165 560.46 135.165C561.467 135.165 562.384 135.023 563.213 134.739C564.041 134.443 564.757 134.005 565.361 133.425C565.965 132.845 566.426 132.129 566.746 131.276L571.771 132.182C571.368 133.661 570.646 134.958 569.605 136.07C568.575 137.171 567.279 138.029 565.716 138.645C564.165 139.249 562.396 139.55 560.407 139.55ZM598.435 118.386L593.624 119.238C593.422 118.622 593.103 118.036 592.665 117.48C592.239 116.924 591.659 116.468 590.925 116.113C590.191 115.758 589.273 115.58 588.173 115.58C586.669 115.58 585.415 115.918 584.408 116.592C583.402 117.255 582.899 118.113 582.899 119.167C582.899 120.078 583.237 120.812 583.911 121.369C584.586 121.925 585.675 122.381 587.178 122.736L591.511 123.73C594.02 124.31 595.89 125.204 597.121 126.411C598.353 127.619 598.968 129.187 598.968 131.116C598.968 132.75 598.495 134.206 597.548 135.484C596.612 136.751 595.304 137.745 593.624 138.467C591.955 139.189 590.019 139.55 587.817 139.55C584.763 139.55 582.272 138.899 580.342 137.597C578.413 136.283 577.229 134.419 576.791 132.004L581.923 131.223C582.242 132.561 582.899 133.573 583.893 134.259C584.888 134.934 586.184 135.271 587.782 135.271C589.522 135.271 590.913 134.91 591.955 134.188C592.996 133.454 593.517 132.561 593.517 131.507C593.517 130.655 593.197 129.939 592.558 129.359C591.931 128.779 590.966 128.341 589.664 128.045L585.048 127.033C582.503 126.453 580.621 125.529 579.401 124.263C578.194 122.996 577.59 121.392 577.59 119.451C577.59 117.841 578.04 116.433 578.94 115.225C579.839 114.018 581.082 113.077 582.668 112.402C584.254 111.715 586.071 111.372 588.119 111.372C591.067 111.372 593.387 112.011 595.08 113.29C596.772 114.556 597.891 116.255 598.435 118.386ZM604.805 139V111.727H610.114V139H604.805ZM607.486 107.519C606.563 107.519 605.77 107.211 605.107 106.596C604.456 105.969 604.131 105.223 604.131 104.359C604.131 103.483 604.456 102.737 605.107 102.121C605.77 101.494 606.563 101.18 607.486 101.18C608.41 101.18 609.197 101.494 609.848 102.121C610.511 102.737 610.842 103.483 610.842 104.359C610.842 105.223 610.511 105.969 609.848 106.596C609.197 107.211 608.41 107.519 607.486 107.519ZM628.691 149.795C626.525 149.795 624.661 149.511 623.098 148.943C621.547 148.375 620.281 147.623 619.298 146.688C618.316 145.753 617.582 144.729 617.097 143.616L621.66 141.734C621.979 142.255 622.406 142.806 622.938 143.386C623.483 143.978 624.217 144.481 625.14 144.895C626.075 145.309 627.277 145.516 628.744 145.516C630.757 145.516 632.42 145.025 633.734 144.043C635.048 143.072 635.705 141.521 635.705 139.391V134.028H635.367C635.048 134.608 634.586 135.254 633.982 135.964C633.39 136.674 632.574 137.29 631.532 137.81C630.49 138.331 629.135 138.592 627.466 138.592C625.312 138.592 623.37 138.089 621.642 137.082C619.926 136.064 618.564 134.567 617.558 132.59C616.564 130.602 616.067 128.157 616.067 125.257C616.067 122.357 616.558 119.871 617.54 117.8C618.535 115.728 619.896 114.142 621.624 113.041C623.353 111.929 625.312 111.372 627.501 111.372C629.194 111.372 630.561 111.656 631.603 112.224C632.645 112.781 633.455 113.432 634.036 114.178C634.627 114.923 635.083 115.58 635.403 116.148H635.793V111.727H640.996V139.604C640.996 141.947 640.451 143.871 639.362 145.374C638.273 146.878 636.799 147.99 634.941 148.712C633.094 149.434 631.011 149.795 628.691 149.795ZM628.638 134.188C630.165 134.188 631.455 133.833 632.509 133.123C633.574 132.401 634.379 131.371 634.923 130.033C635.48 128.684 635.758 127.068 635.758 125.186C635.758 123.351 635.486 121.736 634.941 120.339C634.397 118.942 633.598 117.853 632.544 117.072C631.491 116.279 630.188 115.882 628.638 115.882C627.04 115.882 625.708 116.296 624.643 117.125C623.577 117.942 622.772 119.054 622.228 120.463C621.695 121.872 621.429 123.446 621.429 125.186C621.429 126.973 621.701 128.542 622.246 129.891C622.79 131.241 623.595 132.294 624.661 133.052C625.738 133.809 627.063 134.188 628.638 134.188ZM653.425 122.807V139H648.116V111.727H653.212V116.166H653.549C654.176 114.722 655.159 113.562 656.496 112.686C657.846 111.81 659.545 111.372 661.592 111.372C663.451 111.372 665.078 111.763 666.475 112.544C667.872 113.313 668.955 114.462 669.724 115.989C670.494 117.516 670.879 119.404 670.879 121.653V139H665.57V122.292C665.57 120.315 665.055 118.77 664.025 117.658C662.995 116.533 661.58 115.971 659.781 115.971C658.55 115.971 657.455 116.237 656.496 116.77C655.549 117.303 654.798 118.084 654.241 119.114C653.697 120.132 653.425 121.363 653.425 122.807ZM711.49 112.189C711.301 110.508 710.52 109.206 709.146 108.283C707.773 107.348 706.045 106.88 703.962 106.88C702.47 106.88 701.18 107.117 700.091 107.59C699.002 108.052 698.156 108.691 697.552 109.508C696.96 110.313 696.664 111.23 696.664 112.26C696.664 113.124 696.865 113.87 697.268 114.497C697.682 115.125 698.221 115.651 698.884 116.077C699.558 116.492 700.28 116.841 701.05 117.125C701.819 117.397 702.559 117.622 703.269 117.8L706.82 118.723C707.981 119.007 709.17 119.392 710.389 119.877C711.609 120.362 712.739 121.002 713.781 121.795C714.822 122.588 715.663 123.57 716.302 124.742C716.953 125.914 717.279 127.317 717.279 128.95C717.279 131.01 716.746 132.839 715.681 134.437C714.627 136.035 713.094 137.295 711.082 138.219C709.081 139.142 706.661 139.604 703.82 139.604C701.097 139.604 698.742 139.172 696.753 138.308C694.764 137.443 693.208 136.218 692.083 134.632C690.959 133.034 690.337 131.14 690.219 128.95H695.723C695.83 130.264 696.256 131.359 697.002 132.235C697.759 133.099 698.724 133.744 699.896 134.17C701.079 134.585 702.376 134.792 703.784 134.792C705.335 134.792 706.714 134.549 707.921 134.064C709.141 133.567 710.099 132.88 710.798 132.004C711.496 131.116 711.845 130.081 711.845 128.897C711.845 127.82 711.538 126.938 710.922 126.251C710.318 125.565 709.496 124.997 708.454 124.547C707.424 124.097 706.258 123.701 704.956 123.357L700.659 122.185C697.747 121.392 695.439 120.226 693.735 118.688C692.042 117.149 691.195 115.113 691.195 112.58C691.195 110.484 691.764 108.656 692.9 107.093C694.036 105.531 695.575 104.317 697.517 103.453C699.458 102.577 701.648 102.139 704.086 102.139C706.548 102.139 708.72 102.571 710.602 103.435C712.496 104.299 713.988 105.489 715.077 107.004C716.166 108.508 716.734 110.236 716.781 112.189H711.49ZM726.765 149.227C725.971 149.227 725.249 149.162 724.598 149.032C723.947 148.914 723.462 148.783 723.142 148.641L724.421 144.291C725.391 144.552 726.256 144.664 727.013 144.629C727.771 144.593 728.44 144.309 729.02 143.776C729.611 143.244 730.132 142.374 730.582 141.166L731.239 139.355L721.26 111.727H726.942L733.849 132.892H734.133L741.04 111.727H746.74L735.5 142.64C734.98 144.06 734.317 145.262 733.512 146.244C732.707 147.239 731.748 147.984 730.635 148.482C729.523 148.979 728.232 149.227 726.765 149.227ZM772.166 118.386L767.354 119.238C767.153 118.622 766.833 118.036 766.395 117.48C765.969 116.924 765.389 116.468 764.655 116.113C763.921 115.758 763.004 115.58 761.903 115.58C760.4 115.58 759.145 115.918 758.139 116.592C757.133 117.255 756.63 118.113 756.63 119.167C756.63 120.078 756.967 120.812 757.642 121.369C758.316 121.925 759.405 122.381 760.909 122.736L765.241 123.73C767.751 124.31 769.621 125.204 770.852 126.411C772.083 127.619 772.699 129.187 772.699 131.116C772.699 132.75 772.225 134.206 771.278 135.484C770.343 136.751 769.035 137.745 767.354 138.467C765.685 139.189 763.75 139.55 761.548 139.55C758.494 139.55 756.002 138.899 754.073 137.597C752.143 136.283 750.96 134.419 750.522 132.004L755.653 131.223C755.973 132.561 756.63 133.573 757.624 134.259C758.618 134.934 759.914 135.271 761.512 135.271C763.252 135.271 764.643 134.91 765.685 134.188C766.727 133.454 767.248 132.561 767.248 131.507C767.248 130.655 766.928 129.939 766.289 129.359C765.661 128.779 764.697 128.341 763.395 128.045L758.778 127.033C756.233 126.453 754.351 125.529 753.132 124.263C751.924 122.996 751.321 121.392 751.321 119.451C751.321 117.841 751.77 116.433 752.67 115.225C753.57 114.018 754.813 113.077 756.399 112.402C757.985 111.715 759.802 111.372 761.85 111.372C764.797 111.372 767.117 112.011 768.81 113.29C770.503 114.556 771.621 116.255 772.166 118.386ZM791.267 111.727V115.989H776.369V111.727H791.267ZM780.365 105.193H785.673V130.992C785.673 132.022 785.827 132.797 786.135 133.318C786.443 133.827 786.839 134.176 787.325 134.366C787.822 134.543 788.36 134.632 788.941 134.632C789.367 134.632 789.74 134.603 790.059 134.543C790.379 134.484 790.627 134.437 790.805 134.401L791.764 138.787C791.456 138.905 791.018 139.024 790.45 139.142C789.882 139.272 789.171 139.343 788.319 139.355C786.922 139.379 785.62 139.13 784.413 138.609C783.205 138.089 782.229 137.284 781.483 136.195C780.737 135.106 780.365 133.738 780.365 132.093V105.193ZM808.6 139.55C805.913 139.55 803.599 138.976 801.658 137.828C799.729 136.668 798.237 135.04 797.184 132.945C796.142 130.838 795.621 128.37 795.621 125.541C795.621 122.748 796.142 120.286 797.184 118.155C798.237 116.024 799.705 114.361 801.587 113.165C803.481 111.97 805.694 111.372 808.228 111.372C809.766 111.372 811.258 111.627 812.702 112.136C814.146 112.645 815.442 113.444 816.591 114.533C817.739 115.622 818.644 117.036 819.307 118.776C819.97 120.504 820.301 122.606 820.301 125.08V126.962H798.622V122.984H815.099C815.099 121.588 814.815 120.351 814.247 119.273C813.679 118.184 812.88 117.326 811.85 116.699C810.832 116.071 809.636 115.758 808.263 115.758C806.772 115.758 805.47 116.125 804.357 116.859C803.256 117.581 802.404 118.528 801.8 119.7C801.208 120.86 800.912 122.12 800.912 123.482V126.589C800.912 128.412 801.232 129.962 801.871 131.241C802.522 132.519 803.428 133.496 804.588 134.17C805.748 134.833 807.103 135.165 808.654 135.165C809.66 135.165 810.577 135.023 811.406 134.739C812.234 134.443 812.951 134.005 813.554 133.425C814.158 132.845 814.62 132.129 814.939 131.276L819.964 132.182C819.562 133.661 818.84 134.958 817.798 136.07C816.768 137.171 815.472 138.029 813.909 138.645C812.359 139.249 810.589 139.55 808.6 139.55ZM826.192 139V111.727H831.288V116.166H831.625C832.193 114.663 833.123 113.491 834.413 112.651C835.703 111.798 837.248 111.372 839.047 111.372C840.87 111.372 842.397 111.798 843.628 112.651C844.871 113.503 845.788 114.675 846.38 116.166H846.664C847.315 114.71 848.351 113.55 849.771 112.686C851.192 111.81 852.885 111.372 854.85 111.372C857.324 111.372 859.342 112.147 860.904 113.698C862.479 115.249 863.266 117.587 863.266 120.712V139H857.957V121.209C857.957 119.362 857.454 118.025 856.448 117.196C855.441 116.367 854.24 115.953 852.843 115.953C851.115 115.953 849.771 116.486 848.813 117.551C847.854 118.605 847.374 119.96 847.374 121.617V139H842.083V120.871C842.083 119.392 841.622 118.202 840.698 117.303C839.775 116.403 838.574 115.953 837.094 115.953C836.088 115.953 835.159 116.219 834.306 116.752C833.466 117.273 832.785 118.001 832.264 118.936C831.755 119.871 831.501 120.954 831.501 122.185V139H826.192Z" fill="#219EC4"/>
<g clip-path="url(#clip0_356_10471)">
<path d="M43.5 190C67.5244 190 87 170.516 87 146.481C87 122.446 67.5244 102.961 43.5 102.961C19.4756 102.961 0 122.446 0 146.481C0 170.516 19.4756 190 43.5 190Z" fill="#5FE089"/>
<path d="M43.5 88.0387C67.5244 88.0387 87 68.5545 87 44.5194C87 20.4843 67.5244 1 43.5 1C19.4756 1 0 20.4843 0 44.5194C0 68.5545 19.4756 88.0387 43.5 88.0387Z" fill="#219EC4"/>
</g>
<path d="M130.761 190.136V2.6366H173.729V25.9853H175.061C176.837 21.8423 179.352 17.8473 182.607 14.0002C185.922 10.1532 190.124 7.01634 195.214 4.58973C200.363 2.10393 206.518 0.861042 213.68 0.861042C223.149 0.861042 231.998 3.34684 240.225 8.31842C248.51 13.29 255.198 20.9545 260.288 31.312C265.378 41.6695 267.923 54.8679 267.923 70.9072C267.923 86.3546 265.467 99.2867 260.555 109.703C255.702 120.12 249.132 127.933 240.846 133.141C232.619 138.349 223.475 140.953 213.413 140.953C206.548 140.953 200.6 139.829 195.569 137.58C190.538 135.331 186.306 132.371 182.874 128.702C179.5 125.032 176.896 121.097 175.061 116.894H174.173V190.136H130.761ZM173.286 70.8184C173.286 78.1574 174.262 84.5495 176.215 89.9946C178.228 95.4396 181.098 99.6714 184.827 102.69C188.615 105.649 193.142 107.129 198.41 107.129C203.737 107.129 208.264 105.649 211.993 102.69C215.722 99.6714 218.533 95.4396 220.427 89.9946C222.38 84.5495 223.357 78.1574 223.357 70.8184C223.357 63.4794 222.38 57.117 220.427 51.7311C218.533 46.3452 215.722 42.1726 211.993 39.2133C208.323 36.254 203.796 34.7744 198.41 34.7744C193.083 34.7744 188.555 36.2244 184.827 39.1245C181.098 42.0246 178.228 46.1676 176.215 51.5535C174.262 56.9394 173.286 63.361 173.286 70.8184Z" fill="white"/>
<path d="M327.421 140.953C318.721 140.953 310.997 139.503 304.25 136.603C297.562 133.644 292.265 129.205 288.359 123.286C284.512 117.308 282.588 109.822 282.588 100.825C282.588 93.2495 283.92 86.8575 286.583 81.6492C289.246 76.4408 292.916 72.2091 297.592 68.9539C302.267 65.6986 307.653 63.2424 313.749 61.5853C319.845 59.8689 326.356 58.7148 333.281 58.1229C341.034 57.4127 347.278 56.6729 352.013 55.9034C356.748 55.0748 360.18 53.9207 362.311 52.4411C364.501 50.9022 365.596 48.742 365.596 45.9603V45.5164C365.596 40.9591 364.027 37.4375 360.891 34.9517C357.754 32.4659 353.522 31.223 348.195 31.223C342.454 31.223 337.838 32.4659 334.346 34.9517C330.854 37.4375 328.635 40.8703 327.688 45.25L287.648 43.8296C288.832 35.5436 291.88 28.1454 296.793 21.635C301.764 15.0654 308.571 9.91621 317.212 6.18752C325.912 2.39964 336.358 0.505707 348.55 0.505707C357.251 0.505707 365.27 1.54146 372.609 3.61295C379.948 5.62526 386.34 8.58453 391.786 12.4908C397.231 16.3379 401.433 21.0727 404.392 26.6953C407.411 32.318 408.92 38.7396 408.92 45.9603V138.645H368.082V119.646H367.016C364.59 124.263 361.483 128.169 357.695 131.365C353.966 134.561 349.557 136.958 344.467 138.556C339.436 140.154 333.754 140.953 327.421 140.953ZM340.827 112.544C345.502 112.544 349.705 111.597 353.433 109.703C357.221 107.809 360.24 105.205 362.489 101.891C364.738 98.5171 365.862 94.6108 365.862 90.1719V77.2103C364.619 77.8613 363.11 78.4532 361.335 78.9858C359.618 79.5185 357.724 80.0216 355.653 80.495C353.581 80.9685 351.451 81.3828 349.261 81.738C347.071 82.0931 344.97 82.4186 342.957 82.7145C338.874 83.3656 335.382 84.3717 332.482 85.733C329.641 87.0943 327.451 88.8698 325.912 91.0597C324.432 93.1904 323.693 95.7353 323.693 98.6946C323.693 103.193 325.291 106.626 328.487 108.993C331.742 111.36 335.855 112.544 340.827 112.544Z" fill="white"/>
<path d="M432.465 138.645V2.28127H474.634V27.1392H476.055C478.54 18.143 482.595 11.455 488.217 7.0753C493.84 2.63639 500.38 0.416931 507.837 0.416931C509.85 0.416931 511.921 0.564897 514.052 0.860825C516.183 1.09756 518.165 1.48226 520 2.01494V39.7458C517.928 39.0355 515.206 38.4733 511.832 38.059C508.518 37.6447 505.559 37.4375 502.955 37.4375C497.805 37.4375 493.159 38.5916 489.016 40.8999C484.933 43.1489 481.707 46.3154 479.34 50.3992C477.031 54.4238 475.877 59.1586 475.877 64.6037V138.645H432.465Z" fill="white"/>
<defs>
<clipPath id="clip0_356_10471">
<rect width="87" height="189" fill="white" transform="translate(0 1)"/>
</clipPath>
</defs>
</svg>
