<svg width="424" height="43" viewBox="0 0 424 43" fill="none" xmlns="http://www.w3.org/2000/svg">
<path d="M41.03 1.92993C39.21 11.5999 30.72 18.9199 20.52 18.9199C10.32 18.9199 1.82 11.6099 0 1.92993H41.02H41.03Z" fill="#5FE089"/>
<path d="M41.03 42.9399V42.9599H0V42.9399C1.81 33.2599 10.31 25.9299 20.51 25.9299C30.71 25.9299 39.21 33.2499 41.02 42.9399H41.03Z" fill="#004F3E"/>
<path d="M89.5701 22.44C89.5701 16.76 86.0101 12.42 80.2201 12.42C73.9901 12.42 70.4201 16.87 70.4201 22.44C70.4201 28.01 73.9801 32.4 80.2201 32.4C86.0101 32.4 89.5701 28.11 89.5701 22.44ZM94.7501 22.44C94.7501 29.84 89.5201 37.25 80.7201 37.25C75.8201 37.25 72.5401 35.25 70.4201 32.57V42.96H65.3501V8.3H70.4201V12.25C72.5301 9.63 75.8201 7.63 80.7201 7.63C89.5201 7.63 94.7501 15.03 94.7501 22.44Z" fill="#004F3E"/>
<path d="M113.62 7.63V13.36C105.27 12.36 104.21 18.7 104.21 23.88V36.52H99.1401V8.3H104.21V13.2C106.1 9.41 110 7.63 113.62 7.63Z" fill="#004F3E"/>
<path d="M134.52 23.83H132.57C127.34 23.83 120.49 23.77 120.49 28.73C120.49 30.9 121.88 33.13 126.39 33.13C131.23 33.13 134.18 29.73 134.52 28.45V23.83ZM139.59 19.49V36.52H134.52V32.62C133.24 34.79 129.73 37.24 125.28 37.24C119.94 37.24 115.26 34.01 115.26 28.95C115.26 20.1 126 19.88 129.96 19.88H134.52C134.52 15.59 133.63 12.25 127.78 12.25C124.83 12.25 121.71 13.75 120.49 14.76L116.93 12.03C120.05 9.19 124.33 7.63 128.79 7.63C136.92 7.63 139.59 12.75 139.59 19.49Z" fill="#004F3E"/>
<path d="M166.98 27.89L171.32 30.23C168.76 34.4 164.31 37.24 158.8 37.24C150.28 37.24 143.99 30.56 143.99 22.43C143.99 14.3 150.28 7.62 158.8 7.62C164.31 7.62 168.76 10.46 171.32 14.58L166.98 16.97C165.31 14.19 162.36 12.41 158.8 12.41C153.23 12.41 149.17 16.64 149.17 22.43C149.17 28.22 153.23 32.39 158.8 32.39C162.36 32.39 165.31 30.66 166.98 27.88" fill="#004F3E"/>
<path d="M183.63 14.5901V25.5001C183.63 29.5101 183.69 32.1801 188.08 32.1801C188.91 32.1801 189.53 32.1201 190.14 32.0701V36.5201C189.42 36.6901 188.53 36.8001 187.41 36.8001C181.29 36.8001 178.56 33.5201 178.56 27.3401V14.5901H174.16V9.75009H178.56V3.84009H183.63V9.74009H190.14V14.5801H183.63V14.5901Z" fill="#004F3E"/>
<path d="M195.51 2.94C195.51 1.36 196.81 0 198.45 0C200.09 0 201.39 1.36 201.39 2.94C201.39 4.52 200.09 5.88 198.45 5.88C196.81 5.88 195.51 4.58 195.51 2.94Z" fill="#004F3E"/>
<path d="M201.01 9.75H195.89V36.53H201.01V9.75Z" fill="#004F3E"/>
<path d="M228.75 27.89L233.09 30.23C230.53 34.4 226.08 37.24 220.57 37.24C212.05 37.24 205.76 30.56 205.76 22.43C205.76 14.3 212.05 7.62 220.57 7.62C226.08 7.62 230.53 10.46 233.09 14.58L228.75 16.97C227.08 14.19 224.13 12.41 220.57 12.41C215 12.41 210.94 16.64 210.94 22.43C210.94 28.22 215 32.39 220.57 32.39C224.13 32.39 227.08 30.66 228.75 27.88" fill="#004F3E"/>
<path d="M258.56 20.27C257.89 15.48 254.94 12.42 250.15 12.42C245.36 12.42 242.02 15.59 241.24 20.27H258.55H258.56ZM263.68 24.61H241.25C242.03 29.23 245.48 32.4 250.99 32.4C254.05 32.4 256.84 31.23 258.39 29.23L262.56 31.9C260.05 35.3 255.94 37.24 250.98 37.24C241.63 37.24 235.84 30.56 235.84 22.43C235.84 14.3 241.85 7.62 250.15 7.62C257.83 7.62 265.01 14.08 263.68 24.6" fill="#004F3E"/>
<path d="M347.93 14.59V25.5C347.93 29.51 347.99 32.18 352.38 32.18C353.21 32.18 353.83 32.12 354.44 32.07V36.52C353.72 36.69 352.83 36.8 351.71 36.8C345.59 36.8 342.86 33.52 342.86 27.34V14.59H338.46V9.74997H342.86V3.83997H347.93V9.73997H354.44V14.58H347.93V14.59Z" fill="#004F3E"/>
<path d="M367.41 14.59V25.5C367.41 29.51 367.47 32.18 371.86 32.18C372.69 32.18 373.31 32.12 373.92 32.07V36.52C373.2 36.69 372.31 36.8 371.19 36.8C365.07 36.8 362.34 33.52 362.34 27.34V14.59H357.94V9.74997H362.34V3.83997H367.41V9.73997H373.92V14.58H367.41V14.59Z" fill="#004F3E"/>
<path d="M299.87 22.4399C299.87 16.7599 296.36 12.4199 290.52 12.4199C284.34 12.4199 280.78 16.8699 280.78 22.4399C280.78 28.0099 284.34 32.3999 290.52 32.3999C296.37 32.3999 299.87 28.1099 299.87 22.4399ZM305.1 22.4399C305.1 29.8399 299.81 37.2499 291.02 37.2499C286.12 37.2499 282.89 35.2499 280.78 32.5699V36.5199H275.71V1.92993H280.78V12.2499C282.89 9.62993 286.12 7.62993 291.02 7.62993C299.82 7.62993 305.1 15.0299 305.1 22.4399Z" fill="#004F3E"/>
<path d="M331.28 20.27C330.61 15.48 327.66 12.42 322.87 12.42C318.08 12.42 314.74 15.59 313.96 20.27H331.27H331.28ZM336.4 24.61H313.97C314.75 29.23 318.2 32.4 323.71 32.4C326.77 32.4 329.56 31.23 331.11 29.23L335.28 31.9C332.77 35.3 328.66 37.24 323.7 37.24C314.35 37.24 308.56 30.56 308.56 22.43C308.56 14.3 314.57 7.62 322.87 7.62C330.55 7.62 337.73 14.08 336.4 24.6" fill="#004F3E"/>
<path d="M398.88 20.27C398.21 15.48 395.26 12.42 390.47 12.42C385.68 12.42 382.34 15.59 381.56 20.27H398.87H398.88ZM404 24.61H381.57C382.35 29.23 385.8 32.4 391.31 32.4C394.37 32.4 397.16 31.23 398.71 29.23L402.88 31.9C400.37 35.3 396.26 37.24 391.3 37.24C381.95 37.24 376.16 30.56 376.16 22.43C376.16 14.3 382.17 7.62 390.47 7.62C398.15 7.62 405.33 14.08 404 24.6" fill="#004F3E"/>
<path d="M423.73 7.63V13.36C415.38 12.36 414.32 18.7 414.32 23.88V36.52H409.25V8.3H414.32V13.2C416.21 9.41 420.11 7.63 423.73 7.63Z" fill="#004F3E"/>
</svg>
